<mxfile host="app.diagrams.net" modified="2023-06-08T07:26:58.966Z" agent="Mozilla/5.0 (Macintosh; Intel Mac OS X 10_15_7) AppleWebKit/537.36 (KHTML, like Gecko) Chrome/113.0.0.0 Safari/537.36" etag="L0dGsWiXxt9ex7Fc0xLx" version="21.3.7" type="github">
  <diagram name="Page-1" id="9361dd3d-8414-5efd-6122-117bd74ce7a7">
    <mxGraphModel dx="2347" dy="637" grid="1" gridSize="10" guides="1" tooltips="1" connect="1" arrows="1" fold="1" page="0" pageScale="1.5" pageWidth="826" pageHeight="1169" background="none" math="0" shadow="0">
      <root>
        <mxCell id="0" />
        <mxCell id="1" parent="0" />
        <mxCell id="7vpbiPSwZxNdKRuqHh8o-99" value="转介绍服务" style="shape=umlLifeline;perimeter=lifelinePerimeter;whiteSpace=wrap;html=1;container=1;dropTarget=0;collapsible=0;recursiveResize=0;outlineConnect=0;portConstraint=eastwest;newEdgeStyle={&quot;edgeStyle&quot;:&quot;elbowEdgeStyle&quot;,&quot;elbow&quot;:&quot;vertical&quot;,&quot;curved&quot;:0,&quot;rounded&quot;:0};" vertex="1" parent="1">
          <mxGeometry x="-820" width="100" height="400" as="geometry" />
        </mxCell>
        <mxCell id="7vpbiPSwZxNdKRuqHh8o-113" value="" style="html=1;points=[];perimeter=orthogonalPerimeter;outlineConnect=0;targetShapes=umlLifeline;portConstraint=eastwest;newEdgeStyle={&quot;edgeStyle&quot;:&quot;elbowEdgeStyle&quot;,&quot;elbow&quot;:&quot;vertical&quot;,&quot;curved&quot;:0,&quot;rounded&quot;:0};" vertex="1" parent="7vpbiPSwZxNdKRuqHh8o-99">
          <mxGeometry x="45" y="100" width="10" height="170" as="geometry" />
        </mxCell>
        <mxCell id="7vpbiPSwZxNdKRuqHh8o-131" value="" style="html=1;points=[];perimeter=orthogonalPerimeter;outlineConnect=0;targetShapes=umlLifeline;portConstraint=eastwest;newEdgeStyle={&quot;edgeStyle&quot;:&quot;elbowEdgeStyle&quot;,&quot;elbow&quot;:&quot;vertical&quot;,&quot;curved&quot;:0,&quot;rounded&quot;:0};" vertex="1" parent="7vpbiPSwZxNdKRuqHh8o-99">
          <mxGeometry x="45" y="280" width="10" height="40" as="geometry" />
        </mxCell>
        <mxCell id="7vpbiPSwZxNdKRuqHh8o-132" value="记录积分流水" style="html=1;align=left;spacingLeft=2;endArrow=block;rounded=0;edgeStyle=orthogonalEdgeStyle;curved=0;rounded=0;" edge="1" target="7vpbiPSwZxNdKRuqHh8o-131" parent="7vpbiPSwZxNdKRuqHh8o-99" source="7vpbiPSwZxNdKRuqHh8o-113">
          <mxGeometry relative="1" as="geometry">
            <mxPoint x="55" y="320" as="sourcePoint" />
            <Array as="points">
              <mxPoint x="85" y="260" />
              <mxPoint x="85" y="290" />
            </Array>
          </mxGeometry>
        </mxCell>
        <mxCell id="7vpbiPSwZxNdKRuqHh8o-136" value="" style="html=1;points=[];perimeter=orthogonalPerimeter;outlineConnect=0;targetShapes=umlLifeline;portConstraint=eastwest;newEdgeStyle={&quot;edgeStyle&quot;:&quot;elbowEdgeStyle&quot;,&quot;elbow&quot;:&quot;vertical&quot;,&quot;curved&quot;:0,&quot;rounded&quot;:0};" vertex="1" parent="7vpbiPSwZxNdKRuqHh8o-99">
          <mxGeometry x="45" y="330" width="10" height="40" as="geometry" />
        </mxCell>
        <mxCell id="7vpbiPSwZxNdKRuqHh8o-137" value="判断为新活动 -&amp;gt; 话费券发放" style="html=1;align=left;spacingLeft=2;endArrow=block;rounded=0;edgeStyle=orthogonalEdgeStyle;curved=0;rounded=0;" edge="1" target="7vpbiPSwZxNdKRuqHh8o-136" parent="7vpbiPSwZxNdKRuqHh8o-99" source="7vpbiPSwZxNdKRuqHh8o-131">
          <mxGeometry relative="1" as="geometry">
            <mxPoint x="70" y="320" as="sourcePoint" />
            <Array as="points">
              <mxPoint x="80" y="310" />
              <mxPoint x="80" y="340" />
            </Array>
          </mxGeometry>
        </mxCell>
        <mxCell id="7vpbiPSwZxNdKRuqHh8o-100" value="商户入网服务" style="shape=umlLifeline;perimeter=lifelinePerimeter;whiteSpace=wrap;html=1;container=1;dropTarget=0;collapsible=0;recursiveResize=0;outlineConnect=0;portConstraint=eastwest;newEdgeStyle={&quot;edgeStyle&quot;:&quot;elbowEdgeStyle&quot;,&quot;elbow&quot;:&quot;vertical&quot;,&quot;curved&quot;:0,&quot;rounded&quot;:0};" vertex="1" parent="1">
          <mxGeometry x="-590" width="100" height="400" as="geometry" />
        </mxCell>
        <mxCell id="7vpbiPSwZxNdKRuqHh8o-101" value="sales-system-service" style="shape=umlLifeline;perimeter=lifelinePerimeter;whiteSpace=wrap;html=1;container=1;dropTarget=0;collapsible=0;recursiveResize=0;outlineConnect=0;portConstraint=eastwest;newEdgeStyle={&quot;edgeStyle&quot;:&quot;elbowEdgeStyle&quot;,&quot;elbow&quot;:&quot;vertical&quot;,&quot;curved&quot;:0,&quot;rounded&quot;:0};fontStyle=1" vertex="1" parent="1">
          <mxGeometry x="-400" width="100" height="400" as="geometry" />
        </mxCell>
        <mxCell id="7vpbiPSwZxNdKRuqHh8o-125" value="" style="html=1;points=[];perimeter=orthogonalPerimeter;outlineConnect=0;targetShapes=umlLifeline;portConstraint=eastwest;newEdgeStyle={&quot;edgeStyle&quot;:&quot;elbowEdgeStyle&quot;,&quot;elbow&quot;:&quot;vertical&quot;,&quot;curved&quot;:0,&quot;rounded&quot;:0};" vertex="1" parent="7vpbiPSwZxNdKRuqHh8o-101">
          <mxGeometry x="45" y="125" width="10" height="50" as="geometry" />
        </mxCell>
        <mxCell id="7vpbiPSwZxNdKRuqHh8o-110" value="" style="endArrow=classic;html=1;rounded=0;" edge="1" parent="7vpbiPSwZxNdKRuqHh8o-101" source="7vpbiPSwZxNdKRuqHh8o-125" target="7vpbiPSwZxNdKRuqHh8o-101">
          <mxGeometry width="50" height="50" relative="1" as="geometry">
            <mxPoint x="-310" y="160" as="sourcePoint" />
            <mxPoint x="-130" y="160" as="targetPoint" />
            <Array as="points" />
          </mxGeometry>
        </mxCell>
        <mxCell id="7vpbiPSwZxNdKRuqHh8o-126" value="" style="endArrow=classic;html=1;rounded=0;" edge="1" parent="7vpbiPSwZxNdKRuqHh8o-101" source="7vpbiPSwZxNdKRuqHh8o-101" target="7vpbiPSwZxNdKRuqHh8o-125">
          <mxGeometry width="50" height="50" relative="1" as="geometry">
            <mxPoint x="50" y="210" as="sourcePoint" />
            <mxPoint x="-365" y="210" as="targetPoint" />
            <Array as="points" />
          </mxGeometry>
        </mxCell>
        <mxCell id="7vpbiPSwZxNdKRuqHh8o-102" value="积分服务" style="shape=umlLifeline;perimeter=lifelinePerimeter;whiteSpace=wrap;html=1;container=1;dropTarget=0;collapsible=0;recursiveResize=0;outlineConnect=0;portConstraint=eastwest;newEdgeStyle={&quot;edgeStyle&quot;:&quot;elbowEdgeStyle&quot;,&quot;elbow&quot;:&quot;vertical&quot;,&quot;curved&quot;:0,&quot;rounded&quot;:0};" vertex="1" parent="1">
          <mxGeometry x="-250" width="100" height="400" as="geometry" />
        </mxCell>
        <mxCell id="7vpbiPSwZxNdKRuqHh8o-118" value="" style="html=1;points=[];perimeter=orthogonalPerimeter;outlineConnect=0;targetShapes=umlLifeline;portConstraint=eastwest;newEdgeStyle={&quot;edgeStyle&quot;:&quot;elbowEdgeStyle&quot;,&quot;elbow&quot;:&quot;vertical&quot;,&quot;curved&quot;:0,&quot;rounded&quot;:0};" vertex="1" parent="7vpbiPSwZxNdKRuqHh8o-102">
          <mxGeometry x="45" y="193" width="10" height="47" as="geometry" />
        </mxCell>
        <mxCell id="7vpbiPSwZxNdKRuqHh8o-121" value="" style="endArrow=classic;html=1;rounded=0;" edge="1" parent="7vpbiPSwZxNdKRuqHh8o-102" target="7vpbiPSwZxNdKRuqHh8o-118">
          <mxGeometry width="50" height="50" relative="1" as="geometry">
            <mxPoint x="49.69999999999982" y="193" as="sourcePoint" />
            <mxPoint x="-515" y="243" as="targetPoint" />
            <Array as="points" />
          </mxGeometry>
        </mxCell>
        <mxCell id="7vpbiPSwZxNdKRuqHh8o-106" value="" style="endArrow=classic;html=1;rounded=0;" edge="1" parent="1" source="7vpbiPSwZxNdKRuqHh8o-99" target="7vpbiPSwZxNdKRuqHh8o-100">
          <mxGeometry width="50" height="50" relative="1" as="geometry">
            <mxPoint x="-750" y="70" as="sourcePoint" />
            <mxPoint x="-720" y="40" as="targetPoint" />
            <Array as="points">
              <mxPoint x="-540" y="70" />
            </Array>
          </mxGeometry>
        </mxCell>
        <mxCell id="7vpbiPSwZxNdKRuqHh8o-107" value="监听新商户入网成功消息" style="edgeLabel;html=1;align=center;verticalAlign=middle;resizable=0;points=[];" vertex="1" connectable="0" parent="7vpbiPSwZxNdKRuqHh8o-106">
          <mxGeometry x="0.2018" y="-2" relative="1" as="geometry">
            <mxPoint x="-24" as="offset" />
          </mxGeometry>
        </mxCell>
        <mxCell id="7vpbiPSwZxNdKRuqHh8o-108" value="" style="endArrow=classic;html=1;rounded=0;" edge="1" parent="1" source="7vpbiPSwZxNdKRuqHh8o-100" target="7vpbiPSwZxNdKRuqHh8o-113">
          <mxGeometry width="50" height="50" relative="1" as="geometry">
            <mxPoint x="-760" y="240" as="sourcePoint" />
            <mxPoint x="-760" y="110" as="targetPoint" />
            <Array as="points">
              <mxPoint x="-580" y="110" />
            </Array>
          </mxGeometry>
        </mxCell>
        <mxCell id="7vpbiPSwZxNdKRuqHh8o-109" value="入网成功" style="edgeLabel;html=1;align=center;verticalAlign=middle;resizable=0;points=[];" vertex="1" connectable="0" parent="7vpbiPSwZxNdKRuqHh8o-108">
          <mxGeometry x="0.2018" y="-2" relative="1" as="geometry">
            <mxPoint x="25" as="offset" />
          </mxGeometry>
        </mxCell>
        <mxCell id="7vpbiPSwZxNdKRuqHh8o-119" value="" style="endArrow=classic;html=1;rounded=0;" edge="1" parent="1" target="7vpbiPSwZxNdKRuqHh8o-118">
          <mxGeometry width="50" height="50" relative="1" as="geometry">
            <mxPoint x="-765" y="203" as="sourcePoint" />
            <mxPoint x="-200" y="203" as="targetPoint" />
            <Array as="points">
              <mxPoint x="-545" y="203" />
            </Array>
          </mxGeometry>
        </mxCell>
        <mxCell id="7vpbiPSwZxNdKRuqHh8o-128" value="新老商户加积分" style="edgeLabel;html=1;align=center;verticalAlign=middle;resizable=0;points=[];" vertex="1" connectable="0" parent="7vpbiPSwZxNdKRuqHh8o-119">
          <mxGeometry x="0.2071" y="2" relative="1" as="geometry">
            <mxPoint x="-53" as="offset" />
          </mxGeometry>
        </mxCell>
        <mxCell id="7vpbiPSwZxNdKRuqHh8o-123" value="" style="endArrow=classic;html=1;rounded=0;" edge="1" parent="1" source="7vpbiPSwZxNdKRuqHh8o-113" target="7vpbiPSwZxNdKRuqHh8o-125">
          <mxGeometry width="50" height="50" relative="1" as="geometry">
            <mxPoint x="-765" y="160" as="sourcePoint" />
            <mxPoint x="-350" y="160" as="targetPoint" />
            <Array as="points">
              <mxPoint x="-500" y="140" />
            </Array>
          </mxGeometry>
        </mxCell>
        <mxCell id="7vpbiPSwZxNdKRuqHh8o-127" value="查询注册来源是否为APP" style="edgeLabel;html=1;align=center;verticalAlign=middle;resizable=0;points=[];" vertex="1" connectable="0" parent="7vpbiPSwZxNdKRuqHh8o-123">
          <mxGeometry x="0.0322" y="-1" relative="1" as="geometry">
            <mxPoint as="offset" />
          </mxGeometry>
        </mxCell>
        <mxCell id="7vpbiPSwZxNdKRuqHh8o-129" value="加积分成功" style="html=1;verticalAlign=bottom;endArrow=open;dashed=1;endSize=8;edgeStyle=elbowEdgeStyle;elbow=vertical;curved=0;rounded=0;" edge="1" parent="1" source="7vpbiPSwZxNdKRuqHh8o-118" target="7vpbiPSwZxNdKRuqHh8o-113">
          <mxGeometry x="-0.0536" relative="1" as="geometry">
            <mxPoint x="-270" y="220.2" as="sourcePoint" />
            <mxPoint x="-350" y="220.2" as="targetPoint" />
            <Array as="points">
              <mxPoint x="-420" y="230" />
              <mxPoint x="-660" y="220" />
              <mxPoint x="-770" y="220" />
            </Array>
            <mxPoint as="offset" />
          </mxGeometry>
        </mxCell>
        <mxCell id="7vpbiPSwZxNdKRuqHh8o-130" value="注册来源是APP" style="html=1;verticalAlign=bottom;endArrow=open;dashed=1;endSize=8;edgeStyle=elbowEdgeStyle;elbow=vertical;curved=0;rounded=0;" edge="1" parent="1" source="7vpbiPSwZxNdKRuqHh8o-125" target="7vpbiPSwZxNdKRuqHh8o-113">
          <mxGeometry relative="1" as="geometry">
            <mxPoint x="-330" y="210" as="sourcePoint" />
            <mxPoint x="-410" y="210" as="targetPoint" />
            <Array as="points">
              <mxPoint x="-650" y="170" />
            </Array>
          </mxGeometry>
        </mxCell>
      </root>
    </mxGraphModel>
  </diagram>
</mxfile>
